<mxfile host="app.diagrams.net" agent="Mozilla/5.0 (Windows NT 10.0; Win64; x64) AppleWebKit/537.36 (KHTML, like Gecko) Chrome/138.0.0.0 Safari/537.36" version="27.2.0">
  <diagram name="Seite-1" id="aOj2Irtm--f2NhsNC477">
    <mxGraphModel dx="4995" dy="3661" grid="1" gridSize="10" guides="1" tooltips="1" connect="1" arrows="1" fold="1" page="1" pageScale="1" pageWidth="827" pageHeight="1169" math="0" shadow="0">
      <root>
        <mxCell id="0" />
        <mxCell id="1" parent="0" />
        <mxCell id="5CTyvmmcJ-ZpxMZ7mveq-2" value="" style="rounded=0;whiteSpace=wrap;html=1;" parent="1" vertex="1">
          <mxGeometry x="40" y="-240" width="760" height="450" as="geometry" />
        </mxCell>
        <mxCell id="5CTyvmmcJ-ZpxMZ7mveq-3" value="" style="rounded=0;whiteSpace=wrap;html=1;" parent="1" vertex="1">
          <mxGeometry x="40" y="-240" width="760" height="60" as="geometry" />
        </mxCell>
        <mxCell id="5CTyvmmcJ-ZpxMZ7mveq-4" value="" style="rounded=0;whiteSpace=wrap;html=1;" parent="1" vertex="1">
          <mxGeometry x="730" y="-240" width="70" height="60" as="geometry" />
        </mxCell>
        <mxCell id="5CTyvmmcJ-ZpxMZ7mveq-5" value="" style="rounded=0;whiteSpace=wrap;html=1;" parent="1" vertex="1">
          <mxGeometry x="660" y="-240" width="70" height="60" as="geometry" />
        </mxCell>
        <mxCell id="5CTyvmmcJ-ZpxMZ7mveq-7" value="" style="rounded=0;whiteSpace=wrap;html=1;" parent="1" vertex="1">
          <mxGeometry x="100" y="-240" width="140" height="60" as="geometry" />
        </mxCell>
        <mxCell id="5CTyvmmcJ-ZpxMZ7mveq-8" value="Vocabulary-Trainer" style="text;html=1;align=center;verticalAlign=middle;whiteSpace=wrap;rounded=0;" parent="1" vertex="1">
          <mxGeometry x="110" y="-225" width="120" height="30" as="geometry" />
        </mxCell>
        <mxCell id="5CTyvmmcJ-ZpxMZ7mveq-10" value="Groups" style="text;html=1;align=center;verticalAlign=middle;whiteSpace=wrap;rounded=0;" parent="1" vertex="1">
          <mxGeometry x="670" y="-225" width="50" height="30" as="geometry" />
        </mxCell>
        <mxCell id="5CTyvmmcJ-ZpxMZ7mveq-11" value="Settings" style="text;html=1;align=center;verticalAlign=middle;whiteSpace=wrap;rounded=0;" parent="1" vertex="1">
          <mxGeometry x="740" y="-225" width="50" height="30" as="geometry" />
        </mxCell>
        <mxCell id="5CTyvmmcJ-ZpxMZ7mveq-20" value="apple / Apfel" style="rounded=1;whiteSpace=wrap;html=1;" parent="1" vertex="1">
          <mxGeometry x="165" y="-160" width="120" height="60" as="geometry" />
        </mxCell>
        <mxCell id="5CTyvmmcJ-ZpxMZ7mveq-21" value="pear / Birne" style="rounded=1;whiteSpace=wrap;html=1;" parent="1" vertex="1">
          <mxGeometry x="295" y="-160" width="120" height="60" as="geometry" />
        </mxCell>
        <mxCell id="5CTyvmmcJ-ZpxMZ7mveq-23" value="pear / Birne" style="rounded=1;whiteSpace=wrap;html=1;" parent="1" vertex="1">
          <mxGeometry x="425" y="-160" width="120" height="60" as="geometry" />
        </mxCell>
        <mxCell id="5CTyvmmcJ-ZpxMZ7mveq-24" value="pear / Birne" style="rounded=1;whiteSpace=wrap;html=1;" parent="1" vertex="1">
          <mxGeometry x="555" y="-160" width="120" height="60" as="geometry" />
        </mxCell>
        <mxCell id="5CTyvmmcJ-ZpxMZ7mveq-25" value="pear / Birne" style="rounded=1;whiteSpace=wrap;html=1;" parent="1" vertex="1">
          <mxGeometry x="165" y="-90" width="120" height="60" as="geometry" />
        </mxCell>
        <mxCell id="5CTyvmmcJ-ZpxMZ7mveq-26" value="pear / Birne" style="rounded=1;whiteSpace=wrap;html=1;" parent="1" vertex="1">
          <mxGeometry x="295" y="-90" width="120" height="60" as="geometry" />
        </mxCell>
        <mxCell id="5CTyvmmcJ-ZpxMZ7mveq-27" value="pear / Birne" style="rounded=1;whiteSpace=wrap;html=1;" parent="1" vertex="1">
          <mxGeometry x="425" y="-90" width="120" height="60" as="geometry" />
        </mxCell>
        <mxCell id="5CTyvmmcJ-ZpxMZ7mveq-28" value="pear / Birne" style="rounded=1;whiteSpace=wrap;html=1;" parent="1" vertex="1">
          <mxGeometry x="555" y="-90" width="120" height="60" as="geometry" />
        </mxCell>
        <mxCell id="5CTyvmmcJ-ZpxMZ7mveq-29" value="apple / Apfel" style="rounded=1;whiteSpace=wrap;html=1;" parent="1" vertex="1">
          <mxGeometry x="165" y="-20" width="120" height="60" as="geometry" />
        </mxCell>
        <mxCell id="5CTyvmmcJ-ZpxMZ7mveq-30" value="pear / Birne" style="rounded=1;whiteSpace=wrap;html=1;" parent="1" vertex="1">
          <mxGeometry x="295" y="-20" width="120" height="60" as="geometry" />
        </mxCell>
        <mxCell id="5CTyvmmcJ-ZpxMZ7mveq-31" value="pear / Birne" style="rounded=1;whiteSpace=wrap;html=1;" parent="1" vertex="1">
          <mxGeometry x="425" y="-20" width="120" height="60" as="geometry" />
        </mxCell>
        <mxCell id="5CTyvmmcJ-ZpxMZ7mveq-32" value="pear / Birne" style="rounded=1;whiteSpace=wrap;html=1;" parent="1" vertex="1">
          <mxGeometry x="555" y="-20" width="120" height="60" as="geometry" />
        </mxCell>
        <mxCell id="5CTyvmmcJ-ZpxMZ7mveq-33" value="pear / Birne" style="rounded=1;whiteSpace=wrap;html=1;" parent="1" vertex="1">
          <mxGeometry x="230" y="50" width="120" height="60" as="geometry" />
        </mxCell>
        <mxCell id="5CTyvmmcJ-ZpxMZ7mveq-34" value="pear / Birne" style="rounded=1;whiteSpace=wrap;html=1;" parent="1" vertex="1">
          <mxGeometry x="360" y="50" width="120" height="60" as="geometry" />
        </mxCell>
        <mxCell id="5CTyvmmcJ-ZpxMZ7mveq-35" value="pear / Birne" style="rounded=1;whiteSpace=wrap;html=1;" parent="1" vertex="1">
          <mxGeometry x="490" y="50" width="120" height="60" as="geometry" />
        </mxCell>
        <mxCell id="BSqUf2-bA_6qswfcJzDh-2" value="[logo]" style="ellipse;whiteSpace=wrap;html=1;aspect=fixed;" vertex="1" parent="1">
          <mxGeometry x="40" y="-240" width="60" height="60" as="geometry" />
        </mxCell>
        <mxCell id="BSqUf2-bA_6qswfcJzDh-3" value="" style="rounded=0;whiteSpace=wrap;html=1;" vertex="1" parent="1">
          <mxGeometry x="840" y="-240" width="760" height="450" as="geometry" />
        </mxCell>
        <mxCell id="BSqUf2-bA_6qswfcJzDh-4" value="" style="rounded=0;whiteSpace=wrap;html=1;" vertex="1" parent="1">
          <mxGeometry x="840" y="-240" width="760" height="60" as="geometry" />
        </mxCell>
        <mxCell id="BSqUf2-bA_6qswfcJzDh-5" value="" style="rounded=0;whiteSpace=wrap;html=1;fillColor=#f5f5f5;fontColor=#333333;strokeColor=#666666;" vertex="1" parent="1">
          <mxGeometry x="1530" y="-240" width="70" height="60" as="geometry" />
        </mxCell>
        <mxCell id="BSqUf2-bA_6qswfcJzDh-6" value="" style="rounded=0;whiteSpace=wrap;html=1;" vertex="1" parent="1">
          <mxGeometry x="1460" y="-240" width="70" height="60" as="geometry" />
        </mxCell>
        <mxCell id="BSqUf2-bA_6qswfcJzDh-7" value="" style="rounded=0;whiteSpace=wrap;html=1;" vertex="1" parent="1">
          <mxGeometry x="900" y="-240" width="140" height="60" as="geometry" />
        </mxCell>
        <mxCell id="BSqUf2-bA_6qswfcJzDh-8" value="Vocabulary-Trainer" style="text;html=1;align=center;verticalAlign=middle;whiteSpace=wrap;rounded=0;" vertex="1" parent="1">
          <mxGeometry x="910" y="-225" width="120" height="30" as="geometry" />
        </mxCell>
        <mxCell id="BSqUf2-bA_6qswfcJzDh-9" value="Groups" style="text;html=1;align=center;verticalAlign=middle;whiteSpace=wrap;rounded=0;" vertex="1" parent="1">
          <mxGeometry x="1470" y="-225" width="50" height="30" as="geometry" />
        </mxCell>
        <mxCell id="BSqUf2-bA_6qswfcJzDh-10" value="Settings" style="text;html=1;align=center;verticalAlign=middle;whiteSpace=wrap;rounded=0;" vertex="1" parent="1">
          <mxGeometry x="1540" y="-225" width="50" height="30" as="geometry" />
        </mxCell>
        <mxCell id="BSqUf2-bA_6qswfcJzDh-28" value="[logo]" style="ellipse;whiteSpace=wrap;html=1;aspect=fixed;" vertex="1" parent="1">
          <mxGeometry x="840" y="-240" width="60" height="60" as="geometry" />
        </mxCell>
        <mxCell id="BSqUf2-bA_6qswfcJzDh-29" value="" style="rounded=0;whiteSpace=wrap;html=1;fillColor=#f5f5f5;fontColor=#333333;strokeColor=#666666;" vertex="1" parent="1">
          <mxGeometry x="1400" y="-180" width="200" height="390" as="geometry" />
        </mxCell>
        <mxCell id="BSqUf2-bA_6qswfcJzDh-30" value="Light Mode&amp;nbsp; &amp;nbsp; &amp;nbsp; &amp;nbsp; &amp;nbsp; &amp;nbsp; &amp;nbsp; &amp;nbsp; &amp;nbsp; &amp;nbsp;Dark Mode" style="rounded=0;whiteSpace=wrap;html=1;fillColor=#f5f5f5;fontColor=#333333;strokeColor=#666666;" vertex="1" parent="1">
          <mxGeometry x="1400" y="-180" width="200" height="40" as="geometry" />
        </mxCell>
        <mxCell id="BSqUf2-bA_6qswfcJzDh-35" value="" style="rounded=1;whiteSpace=wrap;html=1;" vertex="1" parent="1">
          <mxGeometry x="1470" y="-170" width="60" height="20" as="geometry" />
        </mxCell>
        <mxCell id="BSqUf2-bA_6qswfcJzDh-36" value="" style="ellipse;whiteSpace=wrap;html=1;aspect=fixed;fillColor=#dae8fc;strokeColor=#6c8ebf;" vertex="1" parent="1">
          <mxGeometry x="1470" y="-170" width="20" height="20" as="geometry" />
        </mxCell>
        <mxCell id="BSqUf2-bA_6qswfcJzDh-37" value="Color Theme:&amp;nbsp; &amp;nbsp; &amp;nbsp; &amp;nbsp; &amp;nbsp; &amp;nbsp; &amp;nbsp; &amp;nbsp; &amp;nbsp; &amp;nbsp; &amp;nbsp; &amp;nbsp; &amp;nbsp; &amp;nbsp; &amp;nbsp; &amp;nbsp; &amp;nbsp;" style="rounded=0;whiteSpace=wrap;html=1;fillColor=#f5f5f5;fontColor=#333333;strokeColor=#666666;" vertex="1" parent="1">
          <mxGeometry x="1400" y="-140" width="200" height="40" as="geometry" />
        </mxCell>
        <mxCell id="BSqUf2-bA_6qswfcJzDh-38" value="(clickable)" style="rounded=1;whiteSpace=wrap;html=1;fillColor=#f8cecc;strokeColor=#b85450;" vertex="1" parent="1">
          <mxGeometry x="1490" y="-130" width="60" height="20" as="geometry" />
        </mxCell>
        <mxCell id="BSqUf2-bA_6qswfcJzDh-39" value="" style="rounded=0;whiteSpace=wrap;html=1;" vertex="1" parent="1">
          <mxGeometry x="840" y="250" width="760" height="450" as="geometry" />
        </mxCell>
        <mxCell id="BSqUf2-bA_6qswfcJzDh-40" value="" style="rounded=0;whiteSpace=wrap;html=1;" vertex="1" parent="1">
          <mxGeometry x="840" y="250" width="760" height="60" as="geometry" />
        </mxCell>
        <mxCell id="BSqUf2-bA_6qswfcJzDh-41" value="" style="rounded=0;whiteSpace=wrap;html=1;fillColor=#f5f5f5;fontColor=#333333;strokeColor=#666666;" vertex="1" parent="1">
          <mxGeometry x="1530" y="250" width="70" height="60" as="geometry" />
        </mxCell>
        <mxCell id="BSqUf2-bA_6qswfcJzDh-42" value="" style="rounded=0;whiteSpace=wrap;html=1;" vertex="1" parent="1">
          <mxGeometry x="1460" y="250" width="70" height="60" as="geometry" />
        </mxCell>
        <mxCell id="BSqUf2-bA_6qswfcJzDh-43" value="" style="rounded=0;whiteSpace=wrap;html=1;" vertex="1" parent="1">
          <mxGeometry x="900" y="250" width="140" height="60" as="geometry" />
        </mxCell>
        <mxCell id="BSqUf2-bA_6qswfcJzDh-44" value="Vocabulary-Trainer" style="text;html=1;align=center;verticalAlign=middle;whiteSpace=wrap;rounded=0;" vertex="1" parent="1">
          <mxGeometry x="910" y="265" width="120" height="30" as="geometry" />
        </mxCell>
        <mxCell id="BSqUf2-bA_6qswfcJzDh-45" value="Groups" style="text;html=1;align=center;verticalAlign=middle;whiteSpace=wrap;rounded=0;" vertex="1" parent="1">
          <mxGeometry x="1470" y="265" width="50" height="30" as="geometry" />
        </mxCell>
        <mxCell id="BSqUf2-bA_6qswfcJzDh-46" value="Settings" style="text;html=1;align=center;verticalAlign=middle;whiteSpace=wrap;rounded=0;" vertex="1" parent="1">
          <mxGeometry x="1540" y="265" width="50" height="30" as="geometry" />
        </mxCell>
        <mxCell id="BSqUf2-bA_6qswfcJzDh-47" value="[logo]" style="ellipse;whiteSpace=wrap;html=1;aspect=fixed;" vertex="1" parent="1">
          <mxGeometry x="840" y="250" width="60" height="60" as="geometry" />
        </mxCell>
        <mxCell id="BSqUf2-bA_6qswfcJzDh-48" value="" style="rounded=0;whiteSpace=wrap;html=1;fillColor=#f5f5f5;fontColor=#333333;strokeColor=#666666;" vertex="1" parent="1">
          <mxGeometry x="1400" y="310" width="200" height="390" as="geometry" />
        </mxCell>
        <mxCell id="BSqUf2-bA_6qswfcJzDh-49" value="Light Mode&amp;nbsp; &amp;nbsp; &amp;nbsp; &amp;nbsp; &amp;nbsp; &amp;nbsp; &amp;nbsp; &amp;nbsp; &amp;nbsp; &amp;nbsp;Dark Mode" style="rounded=0;whiteSpace=wrap;html=1;fillColor=#f5f5f5;fontColor=#333333;strokeColor=#666666;" vertex="1" parent="1">
          <mxGeometry x="1400" y="310" width="200" height="40" as="geometry" />
        </mxCell>
        <mxCell id="BSqUf2-bA_6qswfcJzDh-50" value="" style="rounded=1;whiteSpace=wrap;html=1;" vertex="1" parent="1">
          <mxGeometry x="1470" y="320" width="60" height="20" as="geometry" />
        </mxCell>
        <mxCell id="BSqUf2-bA_6qswfcJzDh-51" value="" style="ellipse;whiteSpace=wrap;html=1;aspect=fixed;fillColor=#dae8fc;strokeColor=#6c8ebf;" vertex="1" parent="1">
          <mxGeometry x="1510" y="320" width="20" height="20" as="geometry" />
        </mxCell>
        <mxCell id="BSqUf2-bA_6qswfcJzDh-52" value="Color Theme:&amp;nbsp; &amp;nbsp; &amp;nbsp; &amp;nbsp; &amp;nbsp; &amp;nbsp; &amp;nbsp; &amp;nbsp; &amp;nbsp; &amp;nbsp; &amp;nbsp; &amp;nbsp; &amp;nbsp; &amp;nbsp; &amp;nbsp; &amp;nbsp; &amp;nbsp;" style="rounded=0;whiteSpace=wrap;html=1;" vertex="1" parent="1">
          <mxGeometry x="1400" y="350" width="200" height="40" as="geometry" />
        </mxCell>
        <mxCell id="BSqUf2-bA_6qswfcJzDh-53" value="" style="rounded=1;whiteSpace=wrap;html=1;fillColor=#f8cecc;strokeColor=#b85450;" vertex="1" parent="1">
          <mxGeometry x="1490" y="360" width="60" height="20" as="geometry" />
        </mxCell>
        <mxCell id="BSqUf2-bA_6qswfcJzDh-54" value="" style="rounded=0;whiteSpace=wrap;html=1;" vertex="1" parent="1">
          <mxGeometry x="1460" y="390" width="140" height="70" as="geometry" />
        </mxCell>
        <mxCell id="BSqUf2-bA_6qswfcJzDh-56" value="" style="rounded=1;whiteSpace=wrap;html=1;fillColor=#dae8fc;strokeColor=#6c8ebf;" vertex="1" parent="1">
          <mxGeometry x="1535" y="400" width="60" height="20" as="geometry" />
        </mxCell>
        <mxCell id="BSqUf2-bA_6qswfcJzDh-57" value="" style="rounded=1;whiteSpace=wrap;html=1;fillColor=#fff2cc;strokeColor=#d6b656;" vertex="1" parent="1">
          <mxGeometry x="1465" y="400" width="60" height="20" as="geometry" />
        </mxCell>
        <mxCell id="BSqUf2-bA_6qswfcJzDh-58" value="selected" style="rounded=1;whiteSpace=wrap;html=1;fillColor=#f8cecc;strokeColor=#b85450;" vertex="1" parent="1">
          <mxGeometry x="1535" y="430" width="60" height="20" as="geometry" />
        </mxCell>
        <mxCell id="BSqUf2-bA_6qswfcJzDh-59" value="" style="rounded=1;whiteSpace=wrap;html=1;fillColor=#d5e8d4;strokeColor=#82b366;" vertex="1" parent="1">
          <mxGeometry x="1465" y="430" width="60" height="20" as="geometry" />
        </mxCell>
        <mxCell id="BSqUf2-bA_6qswfcJzDh-60" value="" style="rounded=0;whiteSpace=wrap;html=1;" vertex="1" parent="1">
          <mxGeometry x="-760" y="-240" width="760" height="450" as="geometry" />
        </mxCell>
        <mxCell id="BSqUf2-bA_6qswfcJzDh-61" value="" style="rounded=0;whiteSpace=wrap;html=1;" vertex="1" parent="1">
          <mxGeometry x="-760" y="-240" width="760" height="60" as="geometry" />
        </mxCell>
        <mxCell id="BSqUf2-bA_6qswfcJzDh-62" value="" style="rounded=0;whiteSpace=wrap;html=1;" vertex="1" parent="1">
          <mxGeometry x="-70" y="-240" width="70" height="60" as="geometry" />
        </mxCell>
        <mxCell id="BSqUf2-bA_6qswfcJzDh-63" value="" style="rounded=0;whiteSpace=wrap;html=1;" vertex="1" parent="1">
          <mxGeometry x="-140" y="-240" width="70" height="60" as="geometry" />
        </mxCell>
        <mxCell id="BSqUf2-bA_6qswfcJzDh-64" value="" style="rounded=0;whiteSpace=wrap;html=1;" vertex="1" parent="1">
          <mxGeometry x="-700" y="-240" width="140" height="60" as="geometry" />
        </mxCell>
        <mxCell id="BSqUf2-bA_6qswfcJzDh-65" value="Vocabulary-Trainer" style="text;html=1;align=center;verticalAlign=middle;whiteSpace=wrap;rounded=0;" vertex="1" parent="1">
          <mxGeometry x="-690" y="-225" width="120" height="30" as="geometry" />
        </mxCell>
        <mxCell id="BSqUf2-bA_6qswfcJzDh-66" value="Groups" style="text;html=1;align=center;verticalAlign=middle;whiteSpace=wrap;rounded=0;" vertex="1" parent="1">
          <mxGeometry x="-130" y="-225" width="50" height="30" as="geometry" />
        </mxCell>
        <mxCell id="BSqUf2-bA_6qswfcJzDh-67" value="Settings" style="text;html=1;align=center;verticalAlign=middle;whiteSpace=wrap;rounded=0;" vertex="1" parent="1">
          <mxGeometry x="-60" y="-225" width="50" height="30" as="geometry" />
        </mxCell>
        <mxCell id="BSqUf2-bA_6qswfcJzDh-85" value="[logo]" style="ellipse;whiteSpace=wrap;html=1;aspect=fixed;" vertex="1" parent="1">
          <mxGeometry x="-760" y="-240" width="60" height="60" as="geometry" />
        </mxCell>
        <mxCell id="BSqUf2-bA_6qswfcJzDh-86" value="[logo] [copyright] [company name] FAQ Kontakt Datenschutzrichtlinien" style="rounded=0;whiteSpace=wrap;html=1;" vertex="1" parent="1">
          <mxGeometry x="-760" y="160" width="760" height="50" as="geometry" />
        </mxCell>
        <mxCell id="BSqUf2-bA_6qswfcJzDh-87" value="" style="rounded=0;whiteSpace=wrap;html=1;" vertex="1" parent="1">
          <mxGeometry x="40" y="250" width="760" height="450" as="geometry" />
        </mxCell>
        <mxCell id="BSqUf2-bA_6qswfcJzDh-88" value="" style="rounded=0;whiteSpace=wrap;html=1;" vertex="1" parent="1">
          <mxGeometry x="40" y="250" width="760" height="60" as="geometry" />
        </mxCell>
        <mxCell id="BSqUf2-bA_6qswfcJzDh-89" value="" style="rounded=0;whiteSpace=wrap;html=1;fillColor=#f5f5f5;fontColor=#333333;strokeColor=#666666;" vertex="1" parent="1">
          <mxGeometry x="730" y="250" width="70" height="60" as="geometry" />
        </mxCell>
        <mxCell id="BSqUf2-bA_6qswfcJzDh-90" value="" style="rounded=0;whiteSpace=wrap;html=1;" vertex="1" parent="1">
          <mxGeometry x="660" y="250" width="70" height="60" as="geometry" />
        </mxCell>
        <mxCell id="BSqUf2-bA_6qswfcJzDh-91" value="" style="rounded=0;whiteSpace=wrap;html=1;" vertex="1" parent="1">
          <mxGeometry x="100" y="250" width="140" height="60" as="geometry" />
        </mxCell>
        <mxCell id="BSqUf2-bA_6qswfcJzDh-92" value="Vocabulary-Trainer" style="text;html=1;align=center;verticalAlign=middle;whiteSpace=wrap;rounded=0;" vertex="1" parent="1">
          <mxGeometry x="110" y="265" width="120" height="30" as="geometry" />
        </mxCell>
        <mxCell id="BSqUf2-bA_6qswfcJzDh-93" value="Groups" style="text;html=1;align=center;verticalAlign=middle;whiteSpace=wrap;rounded=0;" vertex="1" parent="1">
          <mxGeometry x="670" y="265" width="50" height="30" as="geometry" />
        </mxCell>
        <mxCell id="BSqUf2-bA_6qswfcJzDh-94" value="Settings" style="text;html=1;align=center;verticalAlign=middle;whiteSpace=wrap;rounded=0;" vertex="1" parent="1">
          <mxGeometry x="740" y="265" width="50" height="30" as="geometry" />
        </mxCell>
        <mxCell id="BSqUf2-bA_6qswfcJzDh-95" value="[logo]" style="ellipse;whiteSpace=wrap;html=1;aspect=fixed;" vertex="1" parent="1">
          <mxGeometry x="40" y="250" width="60" height="60" as="geometry" />
        </mxCell>
        <mxCell id="BSqUf2-bA_6qswfcJzDh-96" value="" style="rounded=0;whiteSpace=wrap;html=1;fillColor=#f5f5f5;fontColor=#333333;strokeColor=#666666;" vertex="1" parent="1">
          <mxGeometry x="600" y="310" width="200" height="390" as="geometry" />
        </mxCell>
        <mxCell id="BSqUf2-bA_6qswfcJzDh-97" value="Light Mode&amp;nbsp; &amp;nbsp; &amp;nbsp; &amp;nbsp; &amp;nbsp; &amp;nbsp; &amp;nbsp; &amp;nbsp; &amp;nbsp; &amp;nbsp;Dark Mode" style="rounded=0;whiteSpace=wrap;html=1;fillColor=#f5f5f5;fontColor=#333333;strokeColor=#666666;" vertex="1" parent="1">
          <mxGeometry x="600" y="310" width="200" height="40" as="geometry" />
        </mxCell>
        <mxCell id="BSqUf2-bA_6qswfcJzDh-98" value="" style="rounded=1;whiteSpace=wrap;html=1;" vertex="1" parent="1">
          <mxGeometry x="670" y="320" width="60" height="20" as="geometry" />
        </mxCell>
        <mxCell id="BSqUf2-bA_6qswfcJzDh-99" value="" style="ellipse;whiteSpace=wrap;html=1;aspect=fixed;fillColor=#dae8fc;strokeColor=#6c8ebf;" vertex="1" parent="1">
          <mxGeometry x="710" y="320" width="20" height="20" as="geometry" />
        </mxCell>
        <mxCell id="BSqUf2-bA_6qswfcJzDh-100" value="Color Theme:&amp;nbsp; &amp;nbsp; &amp;nbsp; &amp;nbsp; &amp;nbsp; &amp;nbsp; &amp;nbsp; &amp;nbsp; &amp;nbsp; &amp;nbsp; &amp;nbsp; &amp;nbsp; &amp;nbsp; &amp;nbsp; &amp;nbsp; &amp;nbsp; &amp;nbsp;" style="rounded=0;whiteSpace=wrap;html=1;" vertex="1" parent="1">
          <mxGeometry x="600" y="350" width="200" height="40" as="geometry" />
        </mxCell>
        <mxCell id="BSqUf2-bA_6qswfcJzDh-101" value="" style="rounded=1;whiteSpace=wrap;html=1;fillColor=#f8cecc;strokeColor=#b85450;" vertex="1" parent="1">
          <mxGeometry x="690" y="360" width="60" height="20" as="geometry" />
        </mxCell>
        <mxCell id="BSqUf2-bA_6qswfcJzDh-102" value="" style="rounded=0;whiteSpace=wrap;html=1;" vertex="1" parent="1">
          <mxGeometry x="660" y="390" width="140" height="70" as="geometry" />
        </mxCell>
        <mxCell id="BSqUf2-bA_6qswfcJzDh-103" value="" style="rounded=1;whiteSpace=wrap;html=1;fillColor=#dae8fc;strokeColor=#6c8ebf;" vertex="1" parent="1">
          <mxGeometry x="735" y="400" width="60" height="20" as="geometry" />
        </mxCell>
        <mxCell id="BSqUf2-bA_6qswfcJzDh-104" value="" style="rounded=1;whiteSpace=wrap;html=1;fillColor=#fff2cc;strokeColor=#d6b656;" vertex="1" parent="1">
          <mxGeometry x="665" y="400" width="60" height="20" as="geometry" />
        </mxCell>
        <mxCell id="BSqUf2-bA_6qswfcJzDh-105" value="selected" style="rounded=1;whiteSpace=wrap;html=1;fillColor=#f8cecc;strokeColor=#b85450;" vertex="1" parent="1">
          <mxGeometry x="735" y="430" width="60" height="20" as="geometry" />
        </mxCell>
        <mxCell id="BSqUf2-bA_6qswfcJzDh-106" value="" style="rounded=1;whiteSpace=wrap;html=1;fillColor=#d5e8d4;strokeColor=#82b366;" vertex="1" parent="1">
          <mxGeometry x="665" y="430" width="60" height="20" as="geometry" />
        </mxCell>
        <mxCell id="BSqUf2-bA_6qswfcJzDh-107" value="pear / Birne" style="rounded=1;whiteSpace=wrap;html=1;" vertex="1" parent="1">
          <mxGeometry x="130" y="350" width="120" height="60" as="geometry" />
        </mxCell>
        <mxCell id="BSqUf2-bA_6qswfcJzDh-108" value="pear / Birne" style="rounded=1;whiteSpace=wrap;html=1;" vertex="1" parent="1">
          <mxGeometry x="260" y="350" width="120" height="60" as="geometry" />
        </mxCell>
        <mxCell id="BSqUf2-bA_6qswfcJzDh-109" value="pear / Birne" style="rounded=1;whiteSpace=wrap;html=1;" vertex="1" parent="1">
          <mxGeometry x="390" y="350" width="120" height="60" as="geometry" />
        </mxCell>
        <mxCell id="BSqUf2-bA_6qswfcJzDh-111" value="apple / Apfel" style="rounded=1;whiteSpace=wrap;html=1;" vertex="1" parent="1">
          <mxGeometry x="130" y="420" width="120" height="60" as="geometry" />
        </mxCell>
        <mxCell id="BSqUf2-bA_6qswfcJzDh-112" value="pear / Birne" style="rounded=1;whiteSpace=wrap;html=1;" vertex="1" parent="1">
          <mxGeometry x="260" y="420" width="120" height="60" as="geometry" />
        </mxCell>
        <mxCell id="BSqUf2-bA_6qswfcJzDh-113" value="pear / Birne" style="rounded=1;whiteSpace=wrap;html=1;" vertex="1" parent="1">
          <mxGeometry x="390" y="420" width="120" height="60" as="geometry" />
        </mxCell>
        <mxCell id="BSqUf2-bA_6qswfcJzDh-115" value="pear / Birne" style="rounded=1;whiteSpace=wrap;html=1;" vertex="1" parent="1">
          <mxGeometry x="195" y="490" width="120" height="60" as="geometry" />
        </mxCell>
        <mxCell id="BSqUf2-bA_6qswfcJzDh-116" value="pear / Birne" style="rounded=1;whiteSpace=wrap;html=1;" vertex="1" parent="1">
          <mxGeometry x="325" y="490" width="120" height="60" as="geometry" />
        </mxCell>
        <mxCell id="BSqUf2-bA_6qswfcJzDh-118" value="" style="rounded=0;whiteSpace=wrap;html=1;" vertex="1" parent="1">
          <mxGeometry x="1640" y="-240" width="760" height="450" as="geometry" />
        </mxCell>
        <mxCell id="BSqUf2-bA_6qswfcJzDh-119" value="" style="rounded=0;whiteSpace=wrap;html=1;" vertex="1" parent="1">
          <mxGeometry x="1640" y="-240" width="760" height="60" as="geometry" />
        </mxCell>
        <mxCell id="BSqUf2-bA_6qswfcJzDh-120" value="" style="rounded=0;whiteSpace=wrap;html=1;" vertex="1" parent="1">
          <mxGeometry x="2330" y="-240" width="70" height="60" as="geometry" />
        </mxCell>
        <mxCell id="BSqUf2-bA_6qswfcJzDh-121" value="" style="rounded=0;whiteSpace=wrap;html=1;fillColor=#f5f5f5;fontColor=#333333;strokeColor=#666666;" vertex="1" parent="1">
          <mxGeometry x="2260" y="-240" width="70" height="60" as="geometry" />
        </mxCell>
        <mxCell id="BSqUf2-bA_6qswfcJzDh-122" value="" style="rounded=0;whiteSpace=wrap;html=1;" vertex="1" parent="1">
          <mxGeometry x="1700" y="-240" width="140" height="60" as="geometry" />
        </mxCell>
        <mxCell id="BSqUf2-bA_6qswfcJzDh-123" value="Vocabulary-Trainer" style="text;html=1;align=center;verticalAlign=middle;whiteSpace=wrap;rounded=0;" vertex="1" parent="1">
          <mxGeometry x="1710" y="-225" width="120" height="30" as="geometry" />
        </mxCell>
        <mxCell id="BSqUf2-bA_6qswfcJzDh-124" value="Groups" style="text;html=1;align=center;verticalAlign=middle;whiteSpace=wrap;rounded=0;" vertex="1" parent="1">
          <mxGeometry x="2270" y="-225" width="50" height="30" as="geometry" />
        </mxCell>
        <mxCell id="BSqUf2-bA_6qswfcJzDh-125" value="Settings" style="text;html=1;align=center;verticalAlign=middle;whiteSpace=wrap;rounded=0;" vertex="1" parent="1">
          <mxGeometry x="2340" y="-225" width="50" height="30" as="geometry" />
        </mxCell>
        <mxCell id="BSqUf2-bA_6qswfcJzDh-126" value="[logo]" style="ellipse;whiteSpace=wrap;html=1;aspect=fixed;" vertex="1" parent="1">
          <mxGeometry x="1640" y="-240" width="60" height="60" as="geometry" />
        </mxCell>
        <mxCell id="BSqUf2-bA_6qswfcJzDh-127" value="" style="rounded=0;whiteSpace=wrap;html=1;fillColor=#f5f5f5;fontColor=#333333;strokeColor=#666666;" vertex="1" parent="1">
          <mxGeometry x="2200" y="-180" width="200" height="390" as="geometry" />
        </mxCell>
        <mxCell id="BSqUf2-bA_6qswfcJzDh-138" value="pear / Birne" style="rounded=1;whiteSpace=wrap;html=1;" vertex="1" parent="1">
          <mxGeometry x="1730" y="-140" width="120" height="60" as="geometry" />
        </mxCell>
        <mxCell id="BSqUf2-bA_6qswfcJzDh-139" value="pear / Birne" style="rounded=1;whiteSpace=wrap;html=1;" vertex="1" parent="1">
          <mxGeometry x="1860" y="-140" width="120" height="60" as="geometry" />
        </mxCell>
        <mxCell id="BSqUf2-bA_6qswfcJzDh-140" value="pear / Birne" style="rounded=1;whiteSpace=wrap;html=1;" vertex="1" parent="1">
          <mxGeometry x="1990" y="-140" width="120" height="60" as="geometry" />
        </mxCell>
        <mxCell id="BSqUf2-bA_6qswfcJzDh-141" value="apple / Apfel" style="rounded=1;whiteSpace=wrap;html=1;" vertex="1" parent="1">
          <mxGeometry x="1730" y="-70" width="120" height="60" as="geometry" />
        </mxCell>
        <mxCell id="BSqUf2-bA_6qswfcJzDh-142" value="pear / Birne" style="rounded=1;whiteSpace=wrap;html=1;" vertex="1" parent="1">
          <mxGeometry x="1860" y="-70" width="120" height="60" as="geometry" />
        </mxCell>
        <mxCell id="BSqUf2-bA_6qswfcJzDh-143" value="pear / Birne" style="rounded=1;whiteSpace=wrap;html=1;" vertex="1" parent="1">
          <mxGeometry x="1990" y="-70" width="120" height="60" as="geometry" />
        </mxCell>
        <mxCell id="BSqUf2-bA_6qswfcJzDh-144" value="pear / Birne" style="rounded=1;whiteSpace=wrap;html=1;" vertex="1" parent="1">
          <mxGeometry x="1795" width="120" height="60" as="geometry" />
        </mxCell>
        <mxCell id="BSqUf2-bA_6qswfcJzDh-145" value="pear / Birne" style="rounded=1;whiteSpace=wrap;html=1;" vertex="1" parent="1">
          <mxGeometry x="1925" width="120" height="60" as="geometry" />
        </mxCell>
        <mxCell id="BSqUf2-bA_6qswfcJzDh-146" value="&amp;nbsp; &amp;nbsp; &amp;nbsp; &amp;nbsp; &amp;nbsp;[group 1]&amp;nbsp; &amp;nbsp;&amp;nbsp;" style="rounded=0;whiteSpace=wrap;html=1;align=left;fillColor=#f5f5f5;fontColor=#333333;strokeColor=#666666;" vertex="1" parent="1">
          <mxGeometry x="2200" y="-180" width="200" height="40" as="geometry" />
        </mxCell>
        <mxCell id="BSqUf2-bA_6qswfcJzDh-147" value="" style="ellipse;whiteSpace=wrap;html=1;aspect=fixed;fillColor=#f8cecc;strokeColor=#b85450;" vertex="1" parent="1">
          <mxGeometry x="2210" y="-167.5" width="15" height="15" as="geometry" />
        </mxCell>
        <mxCell id="BSqUf2-bA_6qswfcJzDh-148" value="&amp;nbsp; &amp;nbsp; &amp;nbsp; &amp;nbsp; &amp;nbsp;[group 2]&amp;nbsp; &amp;nbsp;&amp;nbsp;" style="rounded=0;whiteSpace=wrap;html=1;fillColor=#f5f5f5;fontColor=#333333;strokeColor=#666666;align=left;" vertex="1" parent="1">
          <mxGeometry x="2200" y="-140" width="200" height="40" as="geometry" />
        </mxCell>
        <mxCell id="BSqUf2-bA_6qswfcJzDh-149" value="" style="ellipse;whiteSpace=wrap;html=1;aspect=fixed;fillColor=#ffe6cc;strokeColor=#d79b00;" vertex="1" parent="1">
          <mxGeometry x="2210" y="-127.5" width="15" height="15" as="geometry" />
        </mxCell>
        <mxCell id="BSqUf2-bA_6qswfcJzDh-150" value="&amp;nbsp; &amp;nbsp; &amp;nbsp; &amp;nbsp; &amp;nbsp;[group 3]&amp;nbsp; &amp;nbsp;&amp;nbsp;" style="rounded=0;whiteSpace=wrap;html=1;fillColor=#f5f5f5;fontColor=#333333;strokeColor=#666666;align=left;" vertex="1" parent="1">
          <mxGeometry x="2200" y="-100" width="200" height="40" as="geometry" />
        </mxCell>
        <mxCell id="BSqUf2-bA_6qswfcJzDh-151" value="" style="ellipse;whiteSpace=wrap;html=1;aspect=fixed;fillColor=#fff2cc;strokeColor=#d6b656;" vertex="1" parent="1">
          <mxGeometry x="2210" y="-87.5" width="15" height="15" as="geometry" />
        </mxCell>
        <mxCell id="BSqUf2-bA_6qswfcJzDh-154" value="Gruppe hinzufügen" style="rounded=1;whiteSpace=wrap;html=1;" vertex="1" parent="1">
          <mxGeometry x="2230" y="-40" width="140" height="30" as="geometry" />
        </mxCell>
        <mxCell id="BSqUf2-bA_6qswfcJzDh-156" value="Vokabel hinzufügen" style="rounded=1;whiteSpace=wrap;html=1;fillColor=#f5f5f5;fontColor=#333333;strokeColor=#666666;" vertex="1" parent="1">
          <mxGeometry x="315" y="140" width="140" height="30" as="geometry" />
        </mxCell>
        <mxCell id="BSqUf2-bA_6qswfcJzDh-157" value="Lernen" style="rounded=1;whiteSpace=wrap;html=1;fillColor=#f5f5f5;fontColor=#333333;strokeColor=#666666;" vertex="1" parent="1">
          <mxGeometry x="465" y="140" width="65" height="30" as="geometry" />
        </mxCell>
        <mxCell id="BSqUf2-bA_6qswfcJzDh-158" value="" style="rounded=0;whiteSpace=wrap;html=1;fillColor=#f5f5f5;fontColor=#333333;strokeColor=#666666;" vertex="1" parent="1">
          <mxGeometry x="2440" y="-240" width="760" height="450" as="geometry" />
        </mxCell>
        <mxCell id="BSqUf2-bA_6qswfcJzDh-159" value="" style="rounded=0;whiteSpace=wrap;html=1;fillColor=#f5f5f5;fontColor=#333333;strokeColor=#666666;" vertex="1" parent="1">
          <mxGeometry x="2440" y="-240" width="760" height="60" as="geometry" />
        </mxCell>
        <mxCell id="BSqUf2-bA_6qswfcJzDh-160" value="" style="rounded=0;whiteSpace=wrap;html=1;fillColor=#f5f5f5;fontColor=#333333;strokeColor=#666666;" vertex="1" parent="1">
          <mxGeometry x="3130" y="-240" width="70" height="60" as="geometry" />
        </mxCell>
        <mxCell id="BSqUf2-bA_6qswfcJzDh-161" value="" style="rounded=0;whiteSpace=wrap;html=1;fillColor=#f5f5f5;fontColor=#333333;strokeColor=#666666;" vertex="1" parent="1">
          <mxGeometry x="3060" y="-240" width="70" height="60" as="geometry" />
        </mxCell>
        <mxCell id="BSqUf2-bA_6qswfcJzDh-162" value="" style="rounded=0;whiteSpace=wrap;html=1;fillColor=#f5f5f5;fontColor=#333333;strokeColor=#666666;" vertex="1" parent="1">
          <mxGeometry x="2500" y="-240" width="140" height="60" as="geometry" />
        </mxCell>
        <mxCell id="BSqUf2-bA_6qswfcJzDh-163" value="Vocabulary-Trainer" style="text;html=1;align=center;verticalAlign=middle;whiteSpace=wrap;rounded=0;fillColor=#f5f5f5;fontColor=#333333;strokeColor=#666666;" vertex="1" parent="1">
          <mxGeometry x="2510" y="-225" width="120" height="30" as="geometry" />
        </mxCell>
        <mxCell id="BSqUf2-bA_6qswfcJzDh-164" value="Groups" style="text;html=1;align=center;verticalAlign=middle;whiteSpace=wrap;rounded=0;fillColor=#f5f5f5;fontColor=#333333;strokeColor=#666666;" vertex="1" parent="1">
          <mxGeometry x="3070" y="-225" width="50" height="30" as="geometry" />
        </mxCell>
        <mxCell id="BSqUf2-bA_6qswfcJzDh-165" value="Settings" style="text;html=1;align=center;verticalAlign=middle;whiteSpace=wrap;rounded=0;fillColor=#f5f5f5;fontColor=#333333;strokeColor=#666666;" vertex="1" parent="1">
          <mxGeometry x="3140" y="-225" width="50" height="30" as="geometry" />
        </mxCell>
        <mxCell id="BSqUf2-bA_6qswfcJzDh-181" value="[logo]" style="ellipse;whiteSpace=wrap;html=1;aspect=fixed;fillColor=#f5f5f5;fontColor=#333333;strokeColor=#666666;" vertex="1" parent="1">
          <mxGeometry x="2440" y="-240" width="60" height="60" as="geometry" />
        </mxCell>
        <mxCell id="BSqUf2-bA_6qswfcJzDh-184" value="" style="rounded=0;whiteSpace=wrap;html=1;" vertex="1" parent="1">
          <mxGeometry x="2640" y="-140" width="360" height="260" as="geometry" />
        </mxCell>
        <mxCell id="BSqUf2-bA_6qswfcJzDh-186" value="&lt;font style=&quot;font-size: 21px;&quot;&gt;the apple&lt;/font&gt;&lt;div&gt;&lt;font style=&quot;font-size: 11px;&quot;&gt;(click to show answer below)&lt;/font&gt;&lt;/div&gt;" style="rounded=1;whiteSpace=wrap;html=1;" vertex="1" parent="1">
          <mxGeometry x="2670" y="-100" width="300" height="120" as="geometry" />
        </mxCell>
        <mxCell id="BSqUf2-bA_6qswfcJzDh-189" value="Gewusst" style="rounded=1;whiteSpace=wrap;html=1;fillColor=#d5e8d4;strokeColor=#82b366;" vertex="1" parent="1">
          <mxGeometry x="2670" y="30" width="80" height="30" as="geometry" />
        </mxCell>
        <mxCell id="BSqUf2-bA_6qswfcJzDh-190" value="Nicht gewusst" style="rounded=1;whiteSpace=wrap;html=1;fillColor=#f8cecc;strokeColor=#b85450;" vertex="1" parent="1">
          <mxGeometry x="2890" y="30" width="80" height="30" as="geometry" />
        </mxCell>
        <mxCell id="BSqUf2-bA_6qswfcJzDh-191" value="Überspringen" style="rounded=1;whiteSpace=wrap;html=1;fillColor=#f5f5f5;strokeColor=#666666;fontColor=#333333;" vertex="1" parent="1">
          <mxGeometry x="2780" y="30" width="80" height="30" as="geometry" />
        </mxCell>
        <mxCell id="BSqUf2-bA_6qswfcJzDh-192" value="" style="rounded=0;whiteSpace=wrap;html=1;fillColor=#f5f5f5;fontColor=#333333;strokeColor=#666666;" vertex="1" parent="1">
          <mxGeometry x="2440" y="250" width="760" height="450" as="geometry" />
        </mxCell>
        <mxCell id="BSqUf2-bA_6qswfcJzDh-193" value="" style="rounded=0;whiteSpace=wrap;html=1;fillColor=#f5f5f5;fontColor=#333333;strokeColor=#666666;" vertex="1" parent="1">
          <mxGeometry x="2440" y="250" width="760" height="60" as="geometry" />
        </mxCell>
        <mxCell id="BSqUf2-bA_6qswfcJzDh-194" value="" style="rounded=0;whiteSpace=wrap;html=1;fillColor=#f5f5f5;fontColor=#333333;strokeColor=#666666;" vertex="1" parent="1">
          <mxGeometry x="3130" y="250" width="70" height="60" as="geometry" />
        </mxCell>
        <mxCell id="BSqUf2-bA_6qswfcJzDh-195" value="" style="rounded=0;whiteSpace=wrap;html=1;fillColor=#f5f5f5;fontColor=#333333;strokeColor=#666666;" vertex="1" parent="1">
          <mxGeometry x="3060" y="250" width="70" height="60" as="geometry" />
        </mxCell>
        <mxCell id="BSqUf2-bA_6qswfcJzDh-196" value="" style="rounded=0;whiteSpace=wrap;html=1;fillColor=#f5f5f5;fontColor=#333333;strokeColor=#666666;" vertex="1" parent="1">
          <mxGeometry x="2500" y="250" width="140" height="60" as="geometry" />
        </mxCell>
        <mxCell id="BSqUf2-bA_6qswfcJzDh-197" value="Vocabulary-Trainer" style="text;html=1;align=center;verticalAlign=middle;whiteSpace=wrap;rounded=0;fillColor=#f5f5f5;fontColor=#333333;strokeColor=#666666;" vertex="1" parent="1">
          <mxGeometry x="2510" y="265" width="120" height="30" as="geometry" />
        </mxCell>
        <mxCell id="BSqUf2-bA_6qswfcJzDh-198" value="Groups" style="text;html=1;align=center;verticalAlign=middle;whiteSpace=wrap;rounded=0;fillColor=#f5f5f5;fontColor=#333333;strokeColor=#666666;" vertex="1" parent="1">
          <mxGeometry x="3070" y="265" width="50" height="30" as="geometry" />
        </mxCell>
        <mxCell id="BSqUf2-bA_6qswfcJzDh-199" value="Settings" style="text;html=1;align=center;verticalAlign=middle;whiteSpace=wrap;rounded=0;fillColor=#f5f5f5;fontColor=#333333;strokeColor=#666666;" vertex="1" parent="1">
          <mxGeometry x="3140" y="265" width="50" height="30" as="geometry" />
        </mxCell>
        <mxCell id="BSqUf2-bA_6qswfcJzDh-200" value="[logo]" style="ellipse;whiteSpace=wrap;html=1;aspect=fixed;fillColor=#f5f5f5;fontColor=#333333;strokeColor=#666666;" vertex="1" parent="1">
          <mxGeometry x="2440" y="250" width="60" height="60" as="geometry" />
        </mxCell>
        <mxCell id="BSqUf2-bA_6qswfcJzDh-201" value="" style="rounded=0;whiteSpace=wrap;html=1;" vertex="1" parent="1">
          <mxGeometry x="2640" y="350" width="360" height="260" as="geometry" />
        </mxCell>
        <mxCell id="BSqUf2-bA_6qswfcJzDh-207" value="Nicht gewusst" style="rounded=1;whiteSpace=wrap;html=1;fillColor=#f8cecc;strokeColor=#b85450;" vertex="1" parent="1">
          <mxGeometry x="2827.5" y="520" width="120" height="30" as="geometry" />
        </mxCell>
        <mxCell id="BSqUf2-bA_6qswfcJzDh-209" value="Fertig!" style="text;html=1;align=center;verticalAlign=middle;whiteSpace=wrap;rounded=0;" vertex="1" parent="1">
          <mxGeometry x="2790" y="400" width="60" height="30" as="geometry" />
        </mxCell>
        <mxCell id="BSqUf2-bA_6qswfcJzDh-210" value="Gewusst" style="rounded=1;whiteSpace=wrap;html=1;fillColor=#d5e8d4;strokeColor=#82b366;" vertex="1" parent="1">
          <mxGeometry x="2692.5" y="520" width="120" height="30" as="geometry" />
        </mxCell>
        <mxCell id="BSqUf2-bA_6qswfcJzDh-211" value="100 / 120" style="text;html=1;align=center;verticalAlign=middle;whiteSpace=wrap;rounded=0;" vertex="1" parent="1">
          <mxGeometry x="2790" y="450" width="60" height="30" as="geometry" />
        </mxCell>
        <mxCell id="BSqUf2-bA_6qswfcJzDh-212" value="" style="rounded=0;whiteSpace=wrap;html=1;fillColor=#f5f5f5;fontColor=#333333;strokeColor=#666666;" vertex="1" parent="1">
          <mxGeometry x="2440" y="740" width="760" height="450" as="geometry" />
        </mxCell>
        <mxCell id="BSqUf2-bA_6qswfcJzDh-213" value="" style="rounded=0;whiteSpace=wrap;html=1;fillColor=#f5f5f5;fontColor=#333333;strokeColor=#666666;" vertex="1" parent="1">
          <mxGeometry x="2440" y="740" width="760" height="60" as="geometry" />
        </mxCell>
        <mxCell id="BSqUf2-bA_6qswfcJzDh-214" value="" style="rounded=0;whiteSpace=wrap;html=1;fillColor=#f5f5f5;fontColor=#333333;strokeColor=#666666;" vertex="1" parent="1">
          <mxGeometry x="3130" y="740" width="70" height="60" as="geometry" />
        </mxCell>
        <mxCell id="BSqUf2-bA_6qswfcJzDh-215" value="" style="rounded=0;whiteSpace=wrap;html=1;fillColor=#f5f5f5;fontColor=#333333;strokeColor=#666666;" vertex="1" parent="1">
          <mxGeometry x="3060" y="740" width="70" height="60" as="geometry" />
        </mxCell>
        <mxCell id="BSqUf2-bA_6qswfcJzDh-216" value="" style="rounded=0;whiteSpace=wrap;html=1;fillColor=#f5f5f5;fontColor=#333333;strokeColor=#666666;" vertex="1" parent="1">
          <mxGeometry x="2500" y="740" width="140" height="60" as="geometry" />
        </mxCell>
        <mxCell id="BSqUf2-bA_6qswfcJzDh-217" value="Vocabulary-Trainer" style="text;html=1;align=center;verticalAlign=middle;whiteSpace=wrap;rounded=0;fillColor=#f5f5f5;fontColor=#333333;strokeColor=#666666;" vertex="1" parent="1">
          <mxGeometry x="2510" y="755" width="120" height="30" as="geometry" />
        </mxCell>
        <mxCell id="BSqUf2-bA_6qswfcJzDh-218" value="Groups" style="text;html=1;align=center;verticalAlign=middle;whiteSpace=wrap;rounded=0;fillColor=#f5f5f5;fontColor=#333333;strokeColor=#666666;" vertex="1" parent="1">
          <mxGeometry x="3070" y="755" width="50" height="30" as="geometry" />
        </mxCell>
        <mxCell id="BSqUf2-bA_6qswfcJzDh-219" value="Settings" style="text;html=1;align=center;verticalAlign=middle;whiteSpace=wrap;rounded=0;fillColor=#f5f5f5;fontColor=#333333;strokeColor=#666666;" vertex="1" parent="1">
          <mxGeometry x="3140" y="755" width="50" height="30" as="geometry" />
        </mxCell>
        <mxCell id="BSqUf2-bA_6qswfcJzDh-220" value="[logo]" style="ellipse;whiteSpace=wrap;html=1;aspect=fixed;fillColor=#f5f5f5;fontColor=#333333;strokeColor=#666666;" vertex="1" parent="1">
          <mxGeometry x="2440" y="740" width="60" height="60" as="geometry" />
        </mxCell>
        <mxCell id="BSqUf2-bA_6qswfcJzDh-221" value="" style="rounded=0;whiteSpace=wrap;html=1;" vertex="1" parent="1">
          <mxGeometry x="2640" y="840" width="360" height="260" as="geometry" />
        </mxCell>
        <mxCell id="BSqUf2-bA_6qswfcJzDh-224" value="Gewusst" style="rounded=1;whiteSpace=wrap;html=1;fillColor=#d5e8d4;strokeColor=#82b366;" vertex="1" parent="1">
          <mxGeometry x="2760" y="870" width="120" height="30" as="geometry" />
        </mxCell>
        <mxCell id="BSqUf2-bA_6qswfcJzDh-226" value="pear / Birne" style="rounded=1;whiteSpace=wrap;html=1;" vertex="1" parent="1">
          <mxGeometry x="2760" y="910" width="120" height="60" as="geometry" />
        </mxCell>
        <mxCell id="BSqUf2-bA_6qswfcJzDh-227" value="pear / Birne" style="rounded=1;whiteSpace=wrap;html=1;" vertex="1" parent="1">
          <mxGeometry x="2760" y="980" width="120" height="60" as="geometry" />
        </mxCell>
        <mxCell id="BSqUf2-bA_6qswfcJzDh-230" value="Schließen" style="rounded=1;whiteSpace=wrap;html=1;fillColor=#f5f5f5;fontColor=#333333;strokeColor=#666666;" vertex="1" parent="1">
          <mxGeometry x="2760" y="1060" width="120" height="30" as="geometry" />
        </mxCell>
      </root>
    </mxGraphModel>
  </diagram>
</mxfile>
